<svg width="344" height="400" viewBox="0 0 344 400" fill="none" xmlns="http://www.w3.org/2000/svg">
<mask id="path-1-inside-1_3_1169" fill="white">
<path d="M303.327 154.07C375.791 228.38 345.744 331.968 255.606 385.047C137.187 438.125 55.8882 339.046 22.3073 257.659C-11.2747 176.272 -9.50626 84.2691 45.2837 31.1899C100.074 -21.8885 136.79 -2.17162 163.701 52.422C193.747 113.377 230.863 79.7602 303.327 154.07Z"/>
</mask>
<path d="M303.327 154.07L315.498 142.201L315.498 142.201L303.327 154.07ZM255.606 385.047L262.559 400.56L263.419 400.174L264.232 399.696L255.606 385.047ZM22.3073 257.659L38.0221 251.175L38.0221 251.174L22.3073 257.659ZM45.2837 31.1899L33.4551 18.9799L33.4551 18.98L45.2837 31.1899ZM163.701 52.422L178.949 44.9059L178.949 44.9057L163.701 52.422ZM291.156 165.939C323.426 199.031 332.266 237.612 323.884 273.671C315.383 310.243 288.717 345.821 246.979 370.398L264.232 399.696C312.632 371.195 346.06 328.439 357.001 281.369C368.061 233.787 355.692 183.419 315.498 142.201L291.156 165.939ZM248.652 369.534C195.511 393.353 151.976 383.105 117.074 357.98C81.1873 332.146 54.0888 290.114 38.0221 251.175L6.59243 264.143C24.1068 306.591 54.4483 354.791 97.2105 385.574C140.959 417.067 197.282 429.819 262.559 400.56L248.652 369.534ZM38.0221 251.174C5.64438 172.706 9.59057 89.4378 57.1124 43.3999L33.4551 18.98C-28.6031 79.1004 -28.1939 179.837 6.5925 264.143L38.0221 251.174ZM57.1123 43.4C83.0443 18.278 99.9524 15.0533 110.608 17.866C122.459 20.994 135.448 33.5566 148.453 59.9383L178.949 44.9057C165.042 16.6938 146.218 -7.89888 119.286 -15.0081C91.158 -22.4326 62.3131 -8.97656 33.4551 18.9799L57.1123 43.4ZM148.453 59.9382C156.923 77.1217 166.47 88.7299 177.849 97.2043C188.827 105.38 200.694 109.944 211.5 114.103C232.633 122.238 257.406 131.329 291.156 165.939L315.498 142.201C276.784 102.501 246.766 91.2458 223.714 82.3726C212.427 78.0281 204.853 74.9223 198.157 69.9355C191.862 65.2474 185.502 58.1996 178.949 44.9059L148.453 59.9382Z" fill="#E26165" mask="url(#path-1-inside-1_3_1169)"/>
</svg>
