<svg width="400" height="221" viewBox="0 0 400 221" fill="none" xmlns="http://www.w3.org/2000/svg">
<mask id="path-1-inside-1_3_1213" fill="white">
<path d="M208.916 55.2121C171.057 49.7733 106.911 24.9118 71.3783 35.7892C35.8459 46.6666 21.9297 72.3054 4.15894 122.81C-13.6118 173.314 29.6638 197.398 56.7063 211.384C83.7488 225.369 141.697 231.585 176.465 173.312C211.234 115.04 233.641 132.91 263.774 169.427C293.907 205.945 334.084 175.643 364.99 132.91C395.895 90.1769 417.529 22.5807 380.443 5.48744C343.356 -11.6059 324.812 14.8111 297.77 35.7892C270.727 56.7674 246.776 60.6508 208.916 55.2121Z"/>
</mask>
<path d="M4.15894 122.81L16.4219 127.125L16.4219 127.125L4.15894 122.81ZM176.465 173.312L165.301 166.651L165.301 166.651L176.465 173.312ZM263.774 169.427L273.801 161.153L273.801 161.153L263.774 169.427ZM364.99 132.91L375.524 140.529L375.524 140.529L364.99 132.91ZM380.443 5.48744L375.001 17.2938L375.001 17.2938L380.443 5.48744ZM297.77 35.7892L289.802 25.5176L289.802 25.5176L297.77 35.7892ZM210.765 42.3442C202.009 41.0863 191.469 38.6601 179.556 35.7295C167.864 32.8533 154.88 29.4989 142.063 26.6845C129.212 23.863 116.005 21.4612 103.525 20.5081C91.1575 19.5635 78.6559 19.9658 67.573 23.3586L75.1836 48.2198C81.8669 46.1739 90.7082 45.6049 101.545 46.4326C112.269 47.2516 124.126 49.3656 136.487 52.0796C148.88 54.8008 161.251 58.0016 173.345 60.9768C185.218 63.8974 196.894 66.6184 207.068 68.08L210.765 42.3442ZM67.573 23.3586C47.0789 29.6324 32.353 40.4658 20.559 56.8421C9.21851 72.5887 0.788408 93.2224 -8.10406 118.495L16.4219 127.125C25.3002 101.893 32.7136 84.4548 41.657 72.0366C50.1469 60.2481 60.1453 52.8234 75.1836 48.2198L67.573 23.3586ZM-8.10406 118.495C-13.2284 133.058 -14.1797 146.441 -11.6611 158.621C-9.15241 170.754 -3.37318 180.868 3.72518 189.214C17.5748 205.497 37.3862 216.028 50.7345 222.931L62.6781 199.837C48.9839 192.754 33.6362 184.25 23.5301 172.369C18.6506 166.632 15.2528 160.381 13.8003 153.357C12.3576 146.38 12.6609 137.813 16.4219 127.125L-8.10406 118.495ZM50.7345 222.931C66.5303 231.1 90.6682 236.779 115.982 232.241C141.856 227.603 168.293 212.382 187.629 179.973L165.301 166.651C149.87 192.516 129.948 203.323 111.395 206.649C92.2822 210.075 73.9248 205.653 62.6781 199.837L50.7345 222.931ZM187.629 179.973C195.975 165.986 202.945 157.694 208.642 153.151C214.013 148.868 217.596 148.386 220.214 148.719C223.429 149.129 227.803 151.122 233.847 156.303C239.821 161.425 246.275 168.646 253.747 177.701L273.801 161.153C266.206 151.95 258.559 143.243 250.77 136.565C243.051 129.947 234.001 124.266 223.502 122.928C212.406 121.514 201.984 125.207 192.433 132.822C183.209 140.177 174.34 151.503 165.301 166.651L187.629 179.973ZM253.747 177.701C262.797 188.669 273.472 195.597 285.508 197.904C297.414 200.187 309.064 197.642 319.646 192.641C340.33 182.867 359.677 162.439 375.524 140.529L354.456 125.292C339.396 146.115 323.202 162.204 308.538 169.134C301.446 172.486 295.47 173.341 290.402 172.369C285.464 171.423 279.817 168.444 273.801 161.153L253.747 177.701ZM375.524 140.529C391.835 117.975 405.918 88.653 410.984 62.0125C413.515 48.7054 413.986 35.0849 410.514 23.008C406.914 10.4809 399.048 -0.251627 385.884 -6.3189L375.001 17.2938C380.381 19.7732 383.718 23.9001 385.526 30.1902C387.463 36.9305 387.547 46.0849 385.442 57.1551C381.237 79.2694 369.05 105.112 354.456 125.292L375.524 140.529ZM385.884 -6.3189C375.035 -11.3194 364.816 -13.4545 354.977 -12.9201C345.15 -12.3864 336.585 -9.23806 328.985 -4.97925C321.525 -0.799088 314.732 4.60911 308.502 9.861C301.975 15.3629 296.292 20.4826 289.802 25.5176L305.738 46.0609C312.769 40.6068 319.545 34.5575 325.259 29.7403C331.271 24.6731 336.502 20.612 341.695 17.7023C346.747 14.8713 351.461 13.3092 356.387 13.0417C361.3 12.7748 367.307 13.7476 375.001 17.2938L385.884 -6.3189ZM289.802 25.5176C277.542 35.0282 266.578 40.236 254.769 42.6759C242.748 45.1595 228.974 44.96 210.765 42.3442L207.068 68.08C226.718 70.9029 243.849 71.4811 260.03 68.1381C276.422 64.7514 290.956 57.5285 305.738 46.0609L289.802 25.5176Z" fill="#F2CC8F" mask="url(#path-1-inside-1_3_1213)"/>
</svg>
