<svg width="400" height="288" viewBox="0 0 400 288" fill="none" xmlns="http://www.w3.org/2000/svg">
<path d="M30.6589 129.46C85.2945 62.7581 96.5413 101.321 142.339 74.8008C170.461 49.8867 162.425 1.67112 192.957 0.0638533C223.489 -1.54341 225.899 27.3983 223.489 63.5618C221.078 99.7253 243.575 121.425 280.535 118.21C317.494 114.996 381.771 101.333 395.43 164.015C409.089 226.699 393.02 263.666 335.17 282.953C277.321 302.24 223.489 258.04 218.668 202.59C215.454 165.622 200.188 145.532 176.084 146.336C151.98 147.14 134.304 158.39 106.183 206.608C78.0616 254.826 37.0867 257.237 22.6243 244.378C8.16199 231.52 -23.9767 196.16 30.6589 129.46Z" fill="#E2A661" style="mix-blend-mode:color-dodge"/>
</svg>
