<svg width="344" height="400" viewBox="0 0 344 400" fill="none" xmlns="http://www.w3.org/2000/svg">
<mask id="path-1-inside-1_3_1193" fill="white">
<path d="M40.5329 245.93C-31.9311 171.62 -1.88418 68.0316 88.2543 14.9531C206.672 -38.1252 287.972 60.9545 321.553 142.341C355.135 223.728 353.366 315.731 298.576 368.81C243.786 421.889 207.07 402.172 180.159 347.578C150.113 286.623 112.997 320.24 40.5329 245.93Z"/>
</mask>
<path d="M40.5329 245.93L34.0895 252.213L34.0895 252.213L40.5329 245.93ZM88.2543 14.953L84.5731 6.7403L84.1177 6.94446L83.6876 7.19773L88.2543 14.953ZM321.553 142.341L313.233 145.774L313.233 145.774L321.553 142.341ZM298.576 368.81L304.838 375.274L304.838 375.274L298.576 368.81ZM180.159 347.578L172.086 351.557L172.087 351.557L180.159 347.578ZM46.9764 239.647C12.8417 204.642 3.17189 163.288 12.184 124.517C21.259 85.4758 49.5156 48.209 92.8211 22.7083L83.6876 7.19773C36.8546 34.7756 5.01838 75.8424 -5.34863 120.442C-15.7786 165.313 -4.23986 212.908 34.0895 252.213L46.9764 239.647ZM91.9355 23.1658C147.932 -1.93339 194.476 8.9043 231.459 35.527C268.964 62.5255 296.826 106.009 313.233 145.774L329.872 138.909C312.699 97.2864 283.12 50.5371 241.975 20.9185C200.309 -9.07579 146.995 -21.2388 84.5731 6.7403L91.9355 23.1658ZM313.233 145.774C346.177 225.616 343.256 312.995 292.314 362.346L304.838 375.274C363.476 318.467 364.092 221.841 329.872 138.909L313.233 145.774ZM292.314 362.346C265.693 388.135 245.977 393.767 231.21 389.869C215.811 385.804 201.448 370.411 188.232 343.599L172.087 351.557C185.781 379.339 203.232 401.101 226.616 407.273C250.633 413.612 276.669 402.564 304.838 375.274L292.314 362.346ZM188.232 343.599C180.213 327.331 171.416 316.795 161.233 309.212C151.262 301.786 140.405 297.566 129.486 293.363C107.901 285.054 81.8944 275.454 46.9764 239.647L34.0895 252.213C71.6356 290.716 100.419 301.462 123.02 310.161C134.193 314.462 142.778 317.911 150.482 323.648C157.973 329.227 165.083 337.348 172.086 351.557L188.232 343.599Z" fill="white" mask="url(#path-1-inside-1_3_1193)"/>
</svg>
