<svg width="262" height="400" viewBox="0 0 262 400" fill="none" xmlns="http://www.w3.org/2000/svg">
<path d="M52.2552 265.134C27.3524 259.803 -7.03836 242.033 1.26363 197.021C9.56562 152.007 56.9976 169.182 74.7853 128.907C92.5731 88.6322 62.3339 72.0488 83.6792 38.2886C105.025 4.5284 126.37 -9.09414 157.795 6.30525C189.22 21.7046 186.849 72.6411 176.769 91.0019C166.689 109.363 138.822 139.569 149.494 173.33C160.167 207.09 195.15 224.266 230.725 256.249C266.301 288.233 276.973 329.693 230.725 368.784C184.477 407.874 150.087 403.136 119.848 392.475C89.6085 381.814 90.2014 352.2 106.21 335.616C122.22 319.032 138.822 298.894 119.848 278.756C100.874 258.619 77.1581 270.464 52.2552 265.134Z" fill="#E26165" style="mix-blend-mode:lighten"/>
</svg>
