<svg width="302" height="400" viewBox="0 0 302 400" fill="none" xmlns="http://www.w3.org/2000/svg">
<path d="M236.502 27.2222C202.98 -17.5878 146.251 1.77956 96.9162 22.6067C36.1964 54.163 31.1365 105.915 33.0339 151.356C34.9314 196.797 55.1684 210.051 33.0339 232.141C7.57824 257.545 -8.75218 288.571 5.00266 308.699C33.037 349.722 78.5742 321.13 118.422 371.62C158.269 422.11 229.111 394.341 250.615 371.62C272.12 348.9 301.215 319.868 301.848 269.377C302.48 218.888 275.084 219.716 259.905 188.791C244.724 157.866 267.06 139.365 270.223 121.694C273.386 104.022 270.025 72.0322 236.502 27.2222Z" fill="white" fill-opacity="0.62" style="mix-blend-mode:screen"/>
</svg>
