<svg width="302" height="400" viewBox="0 0 302 400" fill="none" xmlns="http://www.w3.org/2000/svg">
<mask id="path-1-inside-1_3_1565" fill="white">
<path d="M65.3564 27.2222C98.879 -17.5878 155.607 1.77956 204.943 22.6067C265.662 54.163 270.722 105.915 268.825 151.356C266.927 196.797 246.69 210.051 268.825 232.141C294.28 257.545 310.611 288.571 296.856 308.699C268.822 349.722 223.285 321.13 183.437 371.62C143.59 422.11 72.7482 394.341 51.2434 371.62C29.7386 348.9 0.644191 319.868 0.010734 269.377C-0.621236 218.888 26.775 219.716 41.9542 188.791C57.1348 157.866 34.7988 139.365 31.636 121.694C28.4731 104.022 31.8337 72.0322 65.3564 27.2222Z"/>
</mask>
<path d="M204.943 22.6067L207.709 17.2828L207.497 17.1723L207.276 17.0791L204.943 22.6067ZM268.825 151.356L274.82 151.607L274.82 151.607L268.825 151.356ZM268.825 232.141L264.586 236.388L264.587 236.388L268.825 232.141ZM296.856 308.699L301.81 312.084L301.81 312.084L296.856 308.699ZM183.437 371.62L178.727 367.902L178.727 367.903L183.437 371.62ZM51.2434 371.62L55.6011 367.495L55.6009 367.495L51.2434 371.62ZM0.010734 269.377L-5.9888 269.452L-5.98879 269.452L0.010734 269.377ZM41.9542 188.791L36.5681 186.147L36.568 186.147L41.9542 188.791ZM70.1607 30.8163C85.3882 10.4617 105.708 4.55068 128.77 6.28364C152.22 8.04576 177.914 17.7093 202.609 28.1343L207.276 17.0791C182.636 6.67695 155.298 -3.75676 129.669 -5.68262C103.653 -7.63763 78.8472 -0.827359 60.552 23.628L70.1607 30.8163ZM202.176 27.9307C231.26 43.046 246.678 62.7555 254.76 83.9156C262.931 105.307 263.77 128.605 262.83 151.106L274.82 151.607C275.777 128.667 275.035 103.368 265.97 79.634C256.817 55.6686 239.345 33.7237 207.709 17.2828L202.176 27.9307ZM262.83 151.106C261.909 173.151 256.663 186.625 253.947 199.243C252.615 205.431 251.891 211.613 253.378 217.959C254.888 224.398 258.502 230.316 264.586 236.388L273.063 227.895C268.081 222.922 265.924 218.899 265.062 215.22C264.177 211.447 264.481 207.334 265.679 201.767C268.022 190.876 273.843 175.002 274.82 151.607L262.83 151.106ZM264.587 236.388C276.976 248.753 286.855 262.216 291.997 274.686C297.163 287.214 297.16 297.62 291.902 305.314L301.81 312.084C310.307 299.651 309.016 284.48 303.091 270.111C297.143 255.686 286.129 240.934 273.063 227.894L264.587 236.388ZM291.902 305.314C279.42 323.579 263.508 326.383 243.31 330.745C223.038 335.123 199.972 340.984 178.727 367.902L188.147 375.337C206.749 351.766 226.376 346.679 245.843 342.474C265.384 338.254 286.257 334.843 301.81 312.084L291.902 305.314ZM178.727 367.903C160.471 391.034 135.179 396.399 111.275 393.129C87.0657 389.818 65.2935 377.736 55.6011 367.495L46.8857 375.744C58.698 388.224 83.099 401.387 109.649 405.019C136.504 408.692 166.555 402.696 188.147 375.337L178.727 367.903ZM55.6009 367.495C33.9672 344.639 6.61091 317.178 6.01026 269.302L-5.98879 269.452C-5.32253 322.558 25.5099 353.161 46.8858 375.744L55.6009 367.495ZM6.01026 269.302C5.85905 257.221 7.3885 248.553 9.80501 241.876C12.2058 235.243 15.5902 230.275 19.5813 225.684C21.6061 223.355 23.7736 221.138 26.1009 218.797C28.392 216.492 30.8703 214.037 33.3071 211.409C38.2468 206.083 43.2061 199.858 47.3403 191.435L36.568 186.147C33.1127 193.187 28.9553 198.455 24.5088 203.249C22.2524 205.682 19.9703 207.943 17.5908 210.336C15.2475 212.693 12.8342 215.155 10.5252 217.811C5.84886 223.19 1.55402 229.414 -1.47858 237.792C-4.49548 246.127 -6.15357 256.288 -5.9888 269.452L6.01026 269.302ZM47.3402 191.435C55.8361 174.128 53.8 159.983 49.2798 148.134C47.1112 142.449 44.2979 137.124 42.1065 132.647C39.8061 127.946 38.1701 124.146 37.5421 120.637L25.7298 122.751C26.6832 128.078 29.0253 133.217 31.3281 137.922C33.7398 142.849 36.1548 147.396 38.0679 152.411C41.7113 161.962 43.2529 172.53 36.5681 186.147L47.3402 191.435ZM37.5421 120.637C34.7481 105.026 37.3422 74.6851 70.1607 30.8163L60.552 23.628C26.3252 69.3792 22.1982 103.019 25.7298 122.751L37.5421 120.637Z" fill="white" mask="url(#path-1-inside-1_3_1565)"/>
</svg>
